<svg id="Layer_1" data-name="Layer 1" xmlns="http://www.w3.org/2000/svg" viewBox="0 0 841.89 841.89"><defs><style>.cls-1{fill:#010101;}.cls-2{fill:#11bad2;}</style></defs><path class="cls-1" d="M405.47,621.35V358.49h-59V506.54l-114.08-148H187.54V621.35h58.78V477.16L359.74,621.35Z"/><path class="cls-2" d="M582.19,318.34a32.84,32.84,0,1,1-32.84-32.83h0A32.83,32.83,0,0,1,582.19,318.34ZM551,219.74a100.71,100.71,0,0,0-24.16,198.49l25-41h-2.46A59.25,59.25,0,1,1,600.91,347h0l-45.2,73.77a100.55,100.55,0,0,0-4.82-201Z"/><path class="cls-1" d="M644.7,227.47h-6.34v-3.73h17.25v3.73h-6.33v16.06H644.7Z"/><path class="cls-1" d="M676.07,243.53l0-11.88-5.82,9.79h-2.07l-5.79-9.53v11.62h-4.3V223.74h3.79l7.41,12.3,7.29-12.3h3.76l.06,19.79Z"/></svg>