<svg id="Layer_1" data-name="Layer 1" xmlns="http://www.w3.org/2000/svg" viewBox="0 0 783 350"><defs><style>.cls-1{fill:#00bad3;}.cls-2{fill:none;}</style></defs><path d="M450.38,208a18.87,18.87,0,0,0-11.89-8.28,16.93,16.93,0,0,0,8.93-8.22,27.19,27.19,0,0,0,3.28-13.06q0-12-8-18.92t-22.1-6.93H377.45v97.12h45.74q14.54,0,22.94-7.32t8.42-19.64a26.42,26.42,0,0,0-4.17-14.71m-51.23-15.86V172.34h18.12q6.3,0,9.45,2.44a8.3,8.3,0,0,1,3.14,7,9.47,9.47,0,0,1-3.27,7.65q-3.27,2.78-9.32,2.78ZM430,227q-3.22,2.77-9.64,2.78h-21.2V210.61h21.59c4.07,0,7.15.76,9.26,2.29a7.71,7.71,0,0,1,3.21,6.71,9.28,9.28,0,0,1-3.21,7.32M573.2,249.7V228.46H530V152.63H508.31v97.11ZM277.53,150.63a50.56,50.56,0,1,1-50.6,50.56,50.57,50.57,0,0,1,50.6-50.56h0m0,78.59a28.06,28.06,0,1,0-28.06-28.06h0a28.06,28.06,0,0,0,28.06,28.06m-98.14,20.52V152.63H157.57v54.69l-42.15-54.69H98.85v97.11h21.71V196.47l41.9,53.27Z"/><ellipse class="cls-1" cx="711.66" cy="154.17" rx="9.17" ry="8.95"/><circle class="cls-1" cx="671.11" cy="154.09" r="11.09"/><circle class="cls-1" cx="711.87" cy="73.1" r="6.55"/><circle class="cls-1" cx="671.12" cy="73.17" r="7.42"/><circle class="cls-1" cx="630.39" cy="73.3" r="9.17"/><circle class="cls-1" cx="711.8" cy="113.84" r="7.42"/><ellipse class="cls-1" cx="671.26" cy="113.93" rx="9.17" ry="8.95"/><circle class="cls-1" cx="630.54" cy="113.85" r="11.09"/><path d="M628.39,170.42a12.13,12.13,0,1,1-12.13-12.13h0A12.13,12.13,0,0,1,628.39,170.42ZM616.87,134a37.21,37.21,0,0,0-8.93,73.33l9.23-15.16h-.91a21.9,21.9,0,1,1,19-11.17h0l-16.7,27.26A37.15,37.15,0,0,0,616.83,134Z"/><rect class="cls-2" width="783" height="350"/><path d="M665.12,177.3h-2.47v-1.45h6.71v1.45H666.9v6.25h-1.78Z"/><path d="M677.33,183.55v-4.62l-2.27,3.8h-.8L672,179v4.52h-1.67v-7.7h1.48l2.88,4.78,2.84-4.78H679l0,7.7Z"/></svg>